<svg height="300" viewBox="0 0 448 448" width="300" xmlns="http://www.w3.org/2000/svg" version="1.1" xmlns:xlink="http://www.w3.org/1999/xlink" xmlns:svgjs="http://svgjs.dev/svgjs"><g transform="matrix(1,0,0,1,0,0)"><path d="m16 0h416c8.835938 0 16 7.164062 16 16v416c0 8.835938-7.164062 16-16 16h-416c-8.835938 0-16-7.164062-16-16v-416c0-8.835938 7.164062-16 16-16zm0 0" fill="#ffffff" fill-opacity="1" data-original-color="#eeeeeeff" stroke="none" stroke-opacity="1"/><path d="m241.9375 353.601562 49.597656 26.0625c12.703125 6.679688 28.097656 5.566407 39.710938-2.867187 11.613281-8.433594 17.433594-22.730469 15.011718-36.875l-9.488281-55.121094c-2.097656-12.226562 1.953125-24.699219 10.832031-33.359375l40.125-39.121094c10.28125-10.015624 13.980469-25 9.542969-38.648437-4.433593-13.648437-16.234375-23.59375-30.4375-25.65625l-55.441406-8c-12.28125-1.785156-22.902344-9.496094-28.398437-20.625l-24.800782-50.238281c-6.347656-12.871094-19.453125-21.023438-33.808594-21.023438-14.351562 0-27.457031 8.152344-33.808593 21.023438l-24.796875 50.238281c-5.492188 11.128906-16.105469 18.839844-28.386719 20.625l-55.453125 8c-14.203125 2.0625-26.003906 12.007813-30.441406 25.65625-4.433594 13.648437-.734375 28.632813 9.542968 38.648437l40.128907 39.121094c8.875 8.660156 12.925781 21.132813 10.832031 33.359375l-9.472656 55.230469c-2.429688 14.144531 3.382812 28.445312 14.996094 36.882812 11.609374 8.433594 27.007812 9.546876 39.707031 2.863282l49.601562-26.066406c10.96875-5.816407 24.097657-5.855469 35.105469-.109376zm0 0" fill="#ffda4a" fill-opacity="1" data-original-color="#ffda4aff" stroke="none" stroke-opacity="1"/></g></svg>